PathFileType	4	(X/Y/Z)	8_coords_data.trc
DataRate	CameraRate	NumFrames	NumMarkers	Units	OrigDataRate	OrigDataStartFrame	OrigNumFrames
30.0	30.0	5	21	m	30.0	1	55
Frame#	Time	THUMB_TIP	THUMB_IP	THUMB_MCP	THUMB_CMC	INDEX_TIP	INDEX_DIP	INDEX_PIP	INDEX_MCP	MIDDLE_TIP	MIDDLE_DIP	MIDDLE_PIP	MIDDLE_MCP	RING_TIP	RING_DIP	RING_PIP	RING_MCP	PINKY_TIP	PINKY_DIP	PINKY_PIP	PINKY_MCP	WRIST
X1	Y1	Z1	X2	Y2	Z2	X3	Y3	Z3	X4	Y4	Z4	X5	Y5	Z5	X6	Y6	Z6	X7	Y7	Z7	X8	Y8	Z8	X9	Y9	Z9	X10	Y10	Z10	X11	Y11	Z11	X12	Y12	Z12	X13	Y13	Z13	X14	Y14	Z14	X15	Y15	Z15	X16	Y16	Z16	X17	Y17	Z17	X18	Y18	Z18	X19	Y19	Z19	X20	Y20	Z20	X21	Y21	Z21
0	-2.749317978547796e-18	0.4841925434668618	-0.054361154553089874	-0.17227984936634227	0.4782990334090018	-0.048286022779428395	-0.15091728132945698	0.4743306902072917	-0.03860951027341342	-0.1216011192690103	0.47209214306577396	-0.03091782815230637	-0.07771812788461346	0.5519854239412765	0.030891149440725907	-0.18417807488790144	0.5398315769780222	0.02890704883101769	-0.17089849098009957	0.525217832610353	0.02286959143111178	-0.15135373678106334	0.5101649201119155	0.003639377158806023	-0.11646470156431377	0.5899570979538323	0.0559223548094947	-0.13055931937938958	0.5736309108202923	0.05139062849980569	-0.12416251780870569	0.5477676747084729	0.04366892674676426	-0.11316806967060655	0.5176957353635704	0.013733144440866818	-0.09917967009201156	0.6035724725180859	0.03850687096723182	-0.0970758255219829	0.5863201380673775	0.0353545675577529	-0.09290210545284916	0.562607534653924	0.03072685253910512	-0.0868625134084759	0.5290850513290238	0.008461635091409736	-0.08296071411345407	0.6036311818612858	-0.0193521971475622	-0.054939793572630624	0.5869668143918071	-0.016060554244387015	-0.05705259830571713	0.5667743914160583	-0.010924839400842212	-0.059641518237705526	0.5321097413698935	-0.004000536883686623	-0.06680388675851229	0.462283081001861	-0.023011742144276925	-0.051989820119430985
1	0.03333333333333339	0.4836073189659058	-0.054539893754945834	-0.1721007506368413	0.47788562371712395	-0.04858021259067358	-0.15065909949005962	0.4735641962026471	-0.03876732653401904	-0.12143834434108647	0.4724459361977523	-0.031204186493205	-0.07749021119206079	0.5515007047181769	0.03118967678425244	-0.184467585817362	0.5395011750501258	0.02901897090346517	-0.1710773160768124	0.5247166780228583	0.023116276617922038	-0.15162001202866304	0.5095454857193766	0.0036355559491914047	-0.11692170457256834	0.5898659603265644	0.0557050479676614	-0.13102762958145414	0.5735093190591213	0.05135611970046483	-0.12458192485854303	0.5477179953169042	0.0433991293871705	-0.11358631324398077	0.5176842349645301	0.013548527017708145	-0.09933630628691559	0.6036194336304562	0.03848374689694656	-0.09737278836838187	0.5864080577675214	0.03538021444276229	-0.09299824528245743	0.5627307196346006	0.03069527236955849	-0.08686514201330714	0.5291651953708708	0.008541959203017924	-0.08270495804548295	0.6037336734542259	-0.019551124669407338	-0.05513720636931796	0.5870718175541746	-0.01614086932900194	-0.05707439930735031	0.5668879834892074	-0.010885824338649264	-0.05948466144812259	0.5321805744726114	-0.004029425776921003	-0.06650385008481252	0.4622830810018608	-0.023011742144276925	-0.051989820119430985
2	0.06666666666666676	0.48308323771933226	-0.05474439723691227	-0.17193623481216358	0.4775492767171645	-0.04885417344213738	-0.15042622460124186	0.47298940934848	-0.038928524030679035	-0.12127988532268374	0.47270992883769025	-0.03144292378917968	-0.07730514621409373	0.5511622969623573	0.03133525093041367	-0.18468285787341396	0.5392738024894504	0.029030858525029624	-0.17121610344594823	0.5243546130892959	0.023236080938170867	-0.15182929934209555	0.5090850077450261	0.00355719616104877	-0.11728632986118659	0.589839856226128	0.055385280864183484	-0.13145439739664272	0.5734585714045326	0.05119546879411074	-0.12496602453349459	0.5477166966216074	0.04309504114909335	-0.11395927639301084	0.517697892212753	0.01333928592564193	-0.09948121250501157	0.6036915297659353	0.03833617086375429	-0.0976515525724842	0.5865097181311074	0.035288506652334406	-0.0931241811718011	0.5628562613268886	0.0305825533282148	-0.08691548054105996	0.5292414035507602	0.008547207957551484	-0.08253304684661011	0.6038061598318889	-0.01979707106223272	-0.05530129799091604	0.5871500853141416	-0.016287277213464235	-0.05710588348304352	0.5669780494736636	-0.010929121134081399	-0.05938429356014552	0.5322431162375726	-0.004099792801240398	-0.06629284902468113	0.462283081001861	-0.023011742144276925	-0.051989820119430985
3	0.10000000000000014	0.482597345873342	-0.054961081620221286	-0.17180760602727857	0.477263352203382	-0.04910265594480301	-0.15023847623179482	0.4725693489778854	-0.039087294619341906	-0.12114416628569907	0.4728920866065839	-0.03163677105039753	-0.07716376679943215	0.550961242373827	0.031349657577688594	-0.18483395950450401	0.5391454752136038	0.028956711707030958	-0.17131872896723632	0.5241219187640769	0.02324659829730813	-0.15198747992699105	0.508770639284424	0.0034165778151797888	-0.11756736081017272	0.5898715174162535	0.05498799139519117	-0.13183805310578986	0.5734705551573565	0.05093389469851328	-0.12531327441557993	0.5477584865104798	0.042764978431482414	-0.11428749177122582	0.5177341488580894	0.013111407447640389	-0.09961258811084361	0.6037860801545446	0.03808508572869218	-0.09790881683612268	0.5866231358898935	0.03509840425941768	-0.09327059756903627	0.5629836148232208	0.030401817219389837	-0.08700201775269939	0.5293146188939456	0.008487069552914783	-0.08243437264507858	0.6038547151269655	-0.02008483049259091	-0.05543739679352433	0.5872062792806001	-0.016492601062203294	-0.05714779779589502	0.5670480162740046	-0.011045016159999865	-0.059334180719860075	0.5322987131097362	-0.0042065372605294415	-0.0661609359475851	0.462283081001861	-0.023011742144276925	-0.051989820119430985
4	0.13333333333333353	0.48213613124808463	-0.055177997415319924	-0.17172431666404098	0.47701071493473235	-0.04932135945305405	-0.15010418948139542	0.4722740594820194	-0.039238617375937035	-0.12104008090520446	0.47300193928004375	-0.03178928955101257	-0.07706431819486098	0.550884875948054	0.03125460522687917	-0.1849291106404818	0.5391085753817831	0.028811326792688163	-0.17138846311291256	0.5240058279651413	0.023166025391836098	-0.15209993217967	0.5085864270352279	0.0032262810443438594	-0.11777377940486516	0.5899533212756197	0.05453460403918231	-0.13217708068747078	0.5735368100609195	0.05059377596599002	-0.12562208002880088	0.5478377774958126	0.042417354104945404	-0.11457149629906938	0.5177900435403664	0.012871075931712883	-0.09972902173272119	0.6038994339134858	0.037751062960604265	-0.09814166514803557	0.5867457852360856	0.03482858457094529	-0.09342876189056198	0.5631117506079665	0.03016627335867328	-0.08711407738880012	0.5293854763837813	0.00837143965792686	-0.08239767145717353	0.603884167408401	-0.020408260516218468	-0.055549979055642074	0.5872442788412064	-0.016748684611052722	-0.057199710144540006	0.5671009575463822	-0.011223193656255348	-0.059327520268102174	0.5323484509748876	-0.004344363166191023	-0.0660971900596935	0.4622830810018609	-0.023011742144276925	-0.051989820119430985
